# xmcd CD Database Entry
#
# Track frame offsets:
# 167
# 13492
# 28267
# 42087
# 55995
# 68420
# 81927
# 95460
# 108887
# 123202
# 137587
# 151045
# 164687
# 177892
# 191852
# 205612
#
# Disc length: 2922 seconds
#
# Revision: 1
# Processed by: cddbd v1.4b41PL1 Copyright (c) Steve Scherf et al.
# Submitted via: tcd 2.0b
#
DISCID=d20b6810
DTITLE=Leadbelly - Convict Blues
DYEAR=1900
DGENRE=
TTITLE0=Ox Drivin' Blues
TTITLE1=Pig Meat Papa
TTITLE2=Fort Worth and Dallas Blues
TTITLE3=Mister Tom Hughes Town
TTITLE4=Bull Cow
TTITLE5=Death Letter Blues Pt. 1
TTITLE6=Death Letter Blues Pt. 2
TTITLE7=You Can't Lose Me, Charlie
TTITLE8=New Black Snake Moan
TTITLE9=TB Woman Blues
TTITLE10=Roberta Pt. 1
TTITLE11=Roberta Pt. 2
TTITLE12=Daddy, I'm Coming Back To You
TTITLE13=My Friend Blind Lemon
TTITLE14=Match Box Blues
TTITLE15=Red River Blues
EXTD=
EXTT0=
EXTT1=
EXTT2=
EXTT3=
EXTT4=
EXTT5=
EXTT6=
EXTT7=
EXTT8=
EXTT9=
EXTT10=
EXTT11=
EXTT12=
EXTT13=
EXTT14=
EXTT15=
PLAYORDER=
